<svg width="38" height="73" viewBox="0 0 38 73" fill="none" xmlns="http://www.w3.org/2000/svg">
<path fill-rule="evenodd" clip-rule="evenodd" d="M11.9043 5.12281C12.5906 5.12281 13.1469 5.67916 13.1469 6.36546V38.848H24.1533V6.36546C24.1533 5.67916 24.7096 5.12281 25.3959 5.12281V5.12281C26.0822 5.12281 26.6386 4.56645 26.6386 3.88015V2C26.6386 0.895431 25.7432 0 24.6386 0H12.6616C11.557 0 10.6616 0.895431 10.6616 2V3.88015C10.6616 4.56645 11.218 5.12281 11.9043 5.12281V5.12281Z" fill="#3A3A3A"/>
<path d="M13.1469 38.848H2.0103C0.905734 38.848 0.0103038 39.7434 0.0103038 40.848V55.8617C0.0103038 55.9032 0.00918896 55.9409 0.00743969 55.9824C-0.0384282 57.0704 -0.387896 73 18.4726 73C37.9999 73 38 55.924 38 55.924C38 55.924 38 55.924 38 55.924V40.848C38 39.7434 37.1046 38.848 36 38.848H24.1533H13.1469Z" fill="#B4B4B4"/>
<path d="M13.1469 38.848H2.0103C0.905734 38.848 0.0103038 39.7434 0.0103038 40.848V55.8617C0.0103038 55.9032 0.00918896 55.9409 0.00743969 55.9824C-0.0384282 57.0704 -0.387896 73 18.4726 73C37.9999 73 38 55.924 38 55.924C38 55.924 38 55.924 38 55.924V40.848C38 39.7434 37.1046 38.848 36 38.848H24.1533H13.1469Z" fill="black" fill-opacity="0.2"/>
</svg>
