<svg width="51" height="51" viewBox="0 0 51 51" fill="none" xmlns="http://www.w3.org/2000/svg">
<path d="M19.125 6.375L3.79473 1.26491C2.23122 0.743739 0.743737 2.23121 1.26491 3.79473L6.375 19.125L12.8429 23.7111L16.2914 21.9869C16.9689 21.6481 17.3969 20.9556 17.3969 20.1981V19.3683C17.3969 18.2637 18.2924 17.3683 19.3969 17.3683L20.2267 17.3683C20.9843 17.3683 21.6768 16.9403 22.0156 16.2627L23.7398 12.8142L19.125 6.375Z" fill="#F15252"/>
<path d="M26.9142 1.41421C26.1332 0.633165 24.8668 0.633164 24.0858 1.41421L19.125 6.375L23.7398 12.8142C24.4769 11.3401 26.5805 11.3401 27.3175 12.8142L31.875 6.375L26.9142 1.41421Z" fill="#F15252"/>
<path d="M49.7351 3.79473C50.2563 2.23122 48.7688 0.743738 47.2053 1.26491L31.875 6.375L27.3175 12.8142L29.0417 16.2627C29.3805 16.9403 30.0731 17.3683 30.8306 17.3683H31.6604C32.765 17.3683 33.6604 18.2637 33.6604 19.3683V20.1981C33.6604 20.9556 34.0884 21.6481 34.766 21.9869L38.2144 23.7111L44.625 19.125L49.7351 3.79473Z" fill="#F15252"/>
<path d="M49.5858 26.9142C50.3668 26.1332 50.3668 24.8668 49.5858 24.0858L44.625 19.125L38.2144 23.7111C39.6885 24.4482 39.6885 26.5518 38.2144 27.2888L44.625 31.875L49.5858 26.9142Z" fill="#F15252"/>
<path d="M47.2053 49.7351C48.7688 50.2563 50.2563 48.7688 49.7351 47.2053L44.625 31.875L38.2144 27.2888L34.766 29.0131C34.0884 29.3519 33.6604 30.0444 33.6604 30.8019V31.6317C33.6604 32.7363 32.765 33.6317 31.6604 33.6317H30.8306C30.0731 33.6317 29.3805 34.0597 29.0417 34.7373L27.3175 38.1857L31.875 44.625L47.2053 49.7351Z" fill="#F15252"/>
<path d="M24.0858 49.5858C24.8668 50.3668 26.1332 50.3668 26.9142 49.5858L31.875 44.625L27.3175 38.1857C26.5805 39.6598 24.4769 39.6598 23.7398 38.1857L19.125 44.625L24.0858 49.5858Z" fill="#F15252"/>
<path d="M1.26491 47.2053C0.743739 48.7688 2.23121 50.2563 3.79473 49.7351L19.125 44.625L23.7398 38.1857L22.0156 34.7373C21.6768 34.0597 20.9843 33.6317 20.2267 33.6317H19.3969C18.2924 33.6317 17.3969 32.7363 17.3969 31.6317V30.8019C17.3969 30.0444 16.9689 29.3519 16.2914 29.0131L12.8429 27.2888L6.375 31.875L1.26491 47.2053Z" fill="#F15252"/>
<path d="M6.375 19.125L1.41421 24.0858C0.633165 24.8668 0.633164 26.1332 1.41421 26.9142L6.375 31.875L12.8429 27.2888C11.3688 26.5518 11.3688 24.4482 12.8429 23.7111L6.375 19.125Z" fill="#F15252"/>
<path d="M16.2914 21.9869L12.8429 23.7111C11.3688 24.4482 11.3688 26.5518 12.8429 27.2888L16.2914 29.0131C16.9689 29.3519 17.3969 30.0444 17.3969 30.8019V31.6317C17.3969 32.7363 18.2924 33.6317 19.3969 33.6317H20.2267C20.9843 33.6317 21.6768 34.0597 22.0156 34.7373L23.7398 38.1857C24.4769 39.6598 26.5805 39.6598 27.3175 38.1857L29.0417 34.7373C29.3805 34.0597 30.0731 33.6317 30.8306 33.6317H31.6604C32.765 33.6317 33.6604 32.7363 33.6604 31.6317V30.8019C33.6604 30.0444 34.0884 29.3519 34.766 29.0131L38.2144 27.2888C39.6885 26.5518 39.6885 24.4482 38.2144 23.7111L34.766 21.9869C34.0884 21.6481 33.6604 20.9556 33.6604 20.1981V19.3683C33.6604 18.2637 32.765 17.3683 31.6604 17.3683H30.8306C30.0731 17.3683 29.3805 16.9403 29.0417 16.2627L27.3175 12.8142C26.5805 11.3401 24.4769 11.3401 23.7398 12.8142L22.0156 16.2627C21.6768 16.9403 20.9843 17.3683 20.2267 17.3683L19.3969 17.3683C18.2924 17.3683 17.3969 18.2637 17.3969 19.3683V20.1981C17.3969 20.9556 16.9689 21.6481 16.2914 21.9869Z" fill="#A23737"/>
</svg>
