<svg width="54" height="73" viewBox="0 0 54 73" fill="none" xmlns="http://www.w3.org/2000/svg">
<path fill-rule="evenodd" clip-rule="evenodd" d="M0 17.2515C0 17.4003 0.094251 17.5326 0.234785 17.5813L43.1538 32.4444H51V2.77485C51 1.40974 49.6626 0.445798 48.3675 0.877485L0.238627 16.9205C0.0961212 16.968 0 17.1013 0 17.2515Z" fill="#5E9EFE"/>
<path d="M40 71C40 72.1046 40.8954 73 42 73H52C53.1046 73 54 72.1046 54 71V69.5C54 68.6716 53.3284 68 52.5 68C51.6716 68 51 67.3284 51 66.5V32.4444H43.1538V66.4231C43.1538 67.294 42.4478 68 41.5769 68C40.706 68 40 68.706 40 69.5769V71Z" fill="#5E9EFE"/>
<path d="M40 71C40 72.1046 40.8954 73 42 73H52C53.1046 73 54 72.1046 54 71V69.5C54 68.6716 53.3284 68 52.5 68C51.6716 68 51 67.3284 51 66.5V32.4444H43.1538V66.4231C43.1538 67.294 42.4478 68 41.5769 68C40.706 68 40 68.706 40 69.5769V71Z" fill="black" fill-opacity="0.33"/>
</svg>
